<svg class="icon" viewBox="0 0 1024 1024" version="1.1" xmlns="http://www.w3.org/2000/svg" p-id="1326" height="128" width="128"><path d="M899 475.5c11 0 20 9 20 20v250c0 11-9 20-20 20h-64c-11 0-20-9-20-20v-250c0-11 9-20 20-20h64m0-40h-64c-33.1 0-60 26.9-60 60v250c0 33.1 26.9 60 60 60h64c33.1 0 60-26.9 60-60v-250c0-33.1-26.8-60-60-60z m-737 0v-71.6c0-35.1 6.9-69.2 20.4-101.2 13.1-31 31.8-58.8 55.7-82.7 23.9-23.9 51.7-42.6 82.7-55.7 32-13.5 66.1-20.4 101.2-20.4h180c35.1 0 69.2 6.9 101.2 20.4 31 13.1 58.8 31.8 82.7 55.7 23.9 23.9 42.6 51.7 55.7 82.7 13.5 32 20.4 66.1 20.4 101.2v71.6h40v-71.6c0-165.7-134.3-300-300-300H422c-165.7 0-300 134.3-300 300v71.6h40z m27 0h-64c-33.1 0-60 26.9-60 60v208.4h40V495.5c0-11 9-20 20-20h64c11 0 20 9 20 20v250c0 11-9 20-20 20h-32v40h32c33.1 0 60-26.9 60-60v-250c0-33.1-26.9-60-60-60z m359.5 425.1H205c-55.1 0-100-44.9-100-100V604H65v156.6c0 77.3 62.7 140 140 140h343.5v-40z m108.7-21.3c8 0 15.7 3.2 21.5 9 5.8 5.8 9 13.4 9 21.5V889c0 8-3.2 15.7-9 21.5-5.8 5.8-13.4 9-21.5 9H598c-8 0-15.7-3.2-21.5-9-5.8-5.8-9-13.4-9-21.5v-19.2c0-8 3.2-15.7 9-21.5 5.8-5.8 13.4-9 21.5-9h59.2m0-40H598c-38.7 0-70.4 31.7-70.4 70.4v19.2c0 38.7 31.7 70.4 70.4 70.4h59.2c38.7 0 70.4-31.7 70.4-70.4v-19.2c0-38.7-31.7-70.4-70.4-70.4z" fill="" p-id="1327"></path></svg>